<svg width="129" height="89" viewBox="0 0 129 89" fill="none" xmlns="http://www.w3.org/2000/svg">
<path d="M1.88005 6.30385C3.05946 11.3827 4.89939 16.2846 7.35282 20.8845C8.86287 23.8544 10.6708 27.0813 12.702 30.4568C14.8565 34.0824 17.2601 37.554 19.8954 40.8465C21.3206 42.614 22.8606 44.2857 24.5053 45.851C26.1934 47.4963 28.026 48.9864 29.9812 50.303C31.9691 51.6753 34.1126 52.8071 36.3669 53.6748C38.6316 54.5839 41.0095 55.1807 43.4354 55.4488L43.838 55.4822C43.8109 55.3469 43.7567 55.2082 43.7194 55.0661C42.3395 49.6905 42.7423 44.0111 44.8673 38.8824C45.9731 36.2928 47.5942 33.9552 49.632 32.012C51.7651 29.9751 54.3844 28.5187 57.2397 27.7821C58.7334 27.348 60.2866 27.1547 61.8409 27.2096C63.5831 27.2582 65.2912 27.7035 66.8352 28.5115C68.3145 29.3338 69.6035 30.4591 70.6179 31.8141C71.6322 33.169 72.3491 34.723 72.7217 36.3744C73.3951 39.3664 72.9988 42.5004 71.6016 45.2315C70.3366 47.7399 68.5899 49.9746 66.4612 51.8079C64.3838 53.6287 62.038 55.118 59.5066 56.2233C56.3443 57.5956 52.9716 58.4191 49.5333 58.6583C49.8809 59.3557 50.2745 60.0292 50.7115 60.6742C53.2619 64.4988 56.6307 67.7081 60.574 70.0701C64.236 72.2974 68.2143 73.9575 72.3736 74.9939C76.0011 75.9176 79.7279 76.3951 83.4715 76.4157C86.6534 76.36 89.8239 76.0175 92.9446 75.3923C97.8367 74.4647 102.613 73.0035 107.187 71.0348C110.266 69.7389 113.242 68.2113 116.09 66.4654C118.367 65.0488 119.967 63.9443 121.188 63.0566C122.26 62.3044 122.947 61.7792 123.495 61.3964L122.497 61.4209C119.651 61.4911 117.077 61.5068 114.904 61.4681C110.567 61.3805 107.799 61.1358 107.775 60.6215C107.751 60.1071 110.316 59.5567 114.572 59.0183C116.707 58.739 119.241 58.4762 122.069 58.2335L123.142 58.1412C123.603 58.0965 124.067 58.0916 124.529 58.1264C124.825 58.1537 125.118 58.2067 125.405 58.2847C125.77 58.3833 126.12 58.5322 126.444 58.7272C127.111 59.1287 127.633 59.7329 127.933 60.4518C128.258 61.3906 128.403 62.3824 128.361 63.3752L128.453 65.6797C128.728 78.4713 128.18 88.8237 127.192 88.767C126.205 88.7103 125.165 78.2984 124.88 65.5001L124.859 63.8148C124.392 64.3588 123.889 64.8713 123.354 65.3491C121.789 66.8064 120.115 68.1428 118.348 69.3467C115.46 71.3583 112.392 73.0998 109.184 74.5491C104.402 76.7588 99.3765 78.3976 94.2114 79.4318C90.8152 80.1259 87.3617 80.5017 83.896 80.5541C79.7591 80.555 75.6386 80.0379 71.6307 79.0148C66.9947 77.8615 62.5634 76.0039 58.4911 73.5067C53.9387 70.7589 50.0608 67.0248 47.1427 62.5792C46.2965 61.3017 45.5819 59.9418 45.0097 58.5201C44.465 58.48 43.9203 58.4399 43.3857 58.3625C40.6711 58.0229 38.0148 57.3195 35.4881 56.2712C33.0343 55.2645 30.7061 53.9752 28.5508 52.4295C26.4806 50.9739 24.5469 49.3332 22.7737 47.5276C21.0887 45.8604 19.5158 44.0835 18.0655 42.2085C15.4354 38.7839 13.0616 35.1698 10.9633 31.3957C8.98387 27.8983 7.2707 24.6026 5.82376 21.5085C3.4934 16.7368 1.88062 11.6466 1.03763 6.40272C0.833618 5.00906 0.736964 3.60174 0.748523 2.19317C0.785395 1.23544 0.815676 0.771796 0.907017 0.744644C0.998358 0.717493 1.14459 2.76474 1.90036 6.31737L1.88005 6.30385ZM47.9145 54.3112C48.0128 54.7138 48.1449 55.1097 48.277 55.5055C51.6065 55.3102 54.8717 54.502 57.9086 53.1215C60.1239 52.1081 62.1714 50.762 63.9803 49.1298C65.7702 47.5447 67.2298 45.6217 68.2751 43.4713C69.2795 41.4332 69.5419 39.1088 69.0171 36.8988C68.7723 35.8103 68.3009 34.7858 67.6336 33.8919C66.9664 32.9981 66.1183 32.2549 65.1447 31.7109C63.0753 30.8087 60.7439 30.7094 58.6045 31.4323C56.3477 32.0452 54.2853 33.226 52.6138 34.8622C50.9671 36.4989 49.6675 38.451 48.7926 40.6015C47.9014 42.7558 47.3696 45.0415 47.2184 47.3677C47.0516 49.6995 47.2801 52.0425 47.8942 54.2977" fill="white" fill-opacity="0.1"/>
</svg>
